<svg width="16" height="16" viewBox="0 0 16 16" fill="none" xmlns="http://www.w3.org/2000/svg">
<mask id="mask0_2456_47133" style="mask-type:alpha" maskUnits="userSpaceOnUse" x="0" y="0" width="16" height="16">
<rect width="16" height="16" fill="#D9D9D9"/>
</mask>
<g mask="url(#mask0_2456_47133)">
<path d="M7.3335 11.3307H4.66683C3.74461 11.3307 2.95861 11.0056 2.30883 10.3554C1.65861 9.70562 1.3335 8.91962 1.3335 7.9974C1.3335 7.07517 1.65861 6.28895 2.30883 5.63873C2.95861 4.98895 3.74461 4.66406 4.66683 4.66406H7.3335V5.9974H4.66683C4.11127 5.9974 3.63905 6.19184 3.25016 6.58073C2.86127 6.96962 2.66683 7.44184 2.66683 7.9974C2.66683 8.55295 2.86127 9.02517 3.25016 9.41406C3.63905 9.80295 4.11127 9.9974 4.66683 9.9974H7.3335V11.3307ZM5.3335 8.66406V7.33073H10.6668V8.66406H5.3335ZM8.66683 11.3307V9.9974H11.3335C11.8891 9.9974 12.3613 9.80295 12.7502 9.41406C13.1391 9.02517 13.3335 8.55295 13.3335 7.9974C13.3335 7.44184 13.1391 6.96962 12.7502 6.58073C12.3613 6.19184 11.8891 5.9974 11.3335 5.9974H8.66683V4.66406H11.3335C12.2557 4.66406 13.0419 4.98895 13.6922 5.63873C14.3419 6.28895 14.6668 7.07517 14.6668 7.9974C14.6668 8.91962 14.3419 9.70562 13.6922 10.3554C13.0419 11.0056 12.2557 11.3307 11.3335 11.3307H8.66683Z" fill="#5A5A5A"/>
</g>
</svg>
