<svg width="40" height="38" viewBox="0 0 40 38" fill="none" xmlns="http://www.w3.org/2000/svg">
<rect x="0.5" y="0.5" width="39" height="37" rx="0.5" fill="#FBFBFB"/>
<mask id="mask0_2562_22266" style="mask-type:alpha" maskUnits="userSpaceOnUse" x="8" y="7" width="24" height="24">
<rect x="8" y="7" width="24" height="24" fill="#D9D9D9"/>
</mask>
<g mask="url(#mask0_2562_22266)">
<path d="M25 27C24.3333 27 23.7667 26.7667 23.3 26.3C22.8333 25.8333 22.6 25.2667 22.6 24.6C22.6 24.5067 22.6067 24.4099 22.62 24.3096C22.6333 24.2099 22.6533 24.12 22.68 24.04L17.04 20.76C16.8133 20.96 16.56 21.1165 16.28 21.2296C16 21.3432 15.7067 21.4 15.4 21.4C14.7333 21.4 14.1667 21.1667 13.7 20.7C13.2333 20.2333 13 19.6667 13 19C13 18.3333 13.2333 17.7667 13.7 17.3C14.1667 16.8333 14.7333 16.6 15.4 16.6C15.7067 16.6 16 16.6565 16.28 16.7696C16.56 16.8832 16.8133 17.04 17.04 17.24L22.68 13.96C22.6533 13.88 22.6333 13.7901 22.62 13.6904C22.6067 13.5901 22.6 13.4933 22.6 13.4C22.6 12.7333 22.8333 12.1667 23.3 11.7C23.7667 11.2333 24.3333 11 25 11C25.6667 11 26.2333 11.2333 26.7 11.7C27.1667 12.1667 27.4 12.7333 27.4 13.4C27.4 14.0667 27.1667 14.6333 26.7 15.1C26.2333 15.5667 25.6667 15.8 25 15.8C24.6933 15.8 24.4 15.7432 24.12 15.6296C23.84 15.5165 23.5867 15.36 23.36 15.16L17.72 18.44C17.7467 18.52 17.7667 18.6099 17.78 18.7096C17.7933 18.8099 17.8 18.9067 17.8 19C17.8 19.0933 17.7933 19.1899 17.78 19.2896C17.7667 19.3899 17.7467 19.48 17.72 19.56L23.36 22.84C23.5867 22.64 23.84 22.4832 24.12 22.3696C24.4 22.2565 24.6933 22.2 25 22.2C25.6667 22.2 26.2333 22.4333 26.7 22.9C27.1667 23.3667 27.4 23.9333 27.4 24.6C27.4 25.2667 27.1667 25.8333 26.7 26.3C26.2333 26.7667 25.6667 27 25 27ZM25 14.2C25.2267 14.2 25.4165 14.1235 25.5696 13.9704C25.7232 13.8168 25.8 13.6267 25.8 13.4C25.8 13.1733 25.7232 12.9832 25.5696 12.8296C25.4165 12.6765 25.2267 12.6 25 12.6C24.7733 12.6 24.5835 12.6765 24.4304 12.8296C24.2768 12.9832 24.2 13.1733 24.2 13.4C24.2 13.6267 24.2768 13.8168 24.4304 13.9704C24.5835 14.1235 24.7733 14.2 25 14.2ZM15.4 19.8C15.6267 19.8 15.8168 19.7232 15.9704 19.5696C16.1235 19.4165 16.2 19.2267 16.2 19C16.2 18.7733 16.1235 18.5832 15.9704 18.4296C15.8168 18.2765 15.6267 18.2 15.4 18.2C15.1733 18.2 14.9832 18.2765 14.8296 18.4296C14.6765 18.5832 14.6 18.7733 14.6 19C14.6 19.2267 14.6765 19.4165 14.8296 19.5696C14.9832 19.7232 15.1733 19.8 15.4 19.8ZM25 25.4C25.2267 25.4 25.4165 25.3232 25.5696 25.1696C25.7232 25.0165 25.8 24.8267 25.8 24.6C25.8 24.3733 25.7232 24.1835 25.5696 24.0304C25.4165 23.8768 25.2267 23.8 25 23.8C24.7733 23.8 24.5835 23.8768 24.4304 24.0304C24.2768 24.1835 24.2 24.3733 24.2 24.6C24.2 24.8267 24.2768 25.0165 24.4304 25.1696C24.5835 25.3232 24.7733 25.4 25 25.4Z" fill="#1C1B1F"/>
</g>
<rect x="0.5" y="0.5" width="39" height="37" rx="0.5" stroke="#D8D8D8"/>
</svg>
