<svg width="181" height="154" viewBox="0 0 181 154" fill="none" xmlns="http://www.w3.org/2000/svg">
<path d="M92.5411 9.25781H2.0791V134.629H92.5411V9.25781Z" fill="#313553"/>
<path d="M90.962 7.8125H0.5V133.184H90.962V7.8125Z" fill="white"/>
<path d="M90.962 133.684H0.5C0.367392 133.684 0.240215 133.631 0.146447 133.537C0.0526785 133.443 0 133.316 0 133.184V7.8125C0 7.67989 0.0526785 7.55272 0.146447 7.45895C0.240215 7.36518 0.367392 7.3125 0.5 7.3125H90.962C91.0946 7.3125 91.2218 7.36518 91.3156 7.45895C91.4093 7.55272 91.462 7.67989 91.462 7.8125V133.184C91.462 133.316 91.4093 133.443 91.3156 133.537C91.2218 133.631 91.0946 133.684 90.962 133.684ZM1 132.684H90.462V8.3125H1V132.684Z" fill="#313553"/>
<path d="M60.7612 3.04688H32.9102V11.8829H60.7612V3.04688Z" fill="#FFE8BB"/>
<path d="M60.7602 12.3879H32.9102C32.7775 12.3879 32.6504 12.3352 32.5566 12.2414C32.4628 12.1477 32.4102 12.0205 32.4102 11.8879V3.04688C32.4102 2.91427 32.4628 2.78709 32.5566 2.69332C32.6504 2.59955 32.7775 2.54688 32.9102 2.54688H60.7602C60.8928 2.54688 61.0199 2.59955 61.1137 2.69332C61.2075 2.78709 61.2602 2.91427 61.2602 3.04688V11.8879C61.2602 12.0205 61.2075 12.1477 61.1137 12.2414C61.0199 12.3352 60.8928 12.3879 60.7602 12.3879ZM33.4102 11.3879H60.2602V3.54688H33.4102V11.3879Z" fill="#313553"/>
<path d="M81.5571 73.375H12.7021V78.239H81.5571V73.375Z" fill="#55DEFF"/>
<path d="M73.2364 64.4751L68.6774 61.9661C68.5614 61.9049 68.4261 61.8917 68.3005 61.9293C68.1749 61.9669 68.0691 62.0524 68.0059 62.1672C67.9427 62.2821 67.9271 62.4172 67.9626 62.5434C67.998 62.6697 68.0816 62.7769 68.1954 62.8421L71.0184 64.3961H25.4004L24.8174 18.6761L26.1874 21.2201C26.2502 21.3369 26.3569 21.424 26.484 21.4622C26.611 21.5003 26.748 21.4865 26.8649 21.4236C26.9817 21.3608 27.0688 21.2541 27.1069 21.127C27.1451 20.9999 27.1312 20.8629 27.0684 20.7461L24.7324 16.4091C24.6894 16.3302 24.6259 16.2644 24.5486 16.2185C24.4714 16.1726 24.3832 16.1484 24.2934 16.1484C24.2035 16.1484 24.1153 16.1726 24.0381 16.2185C23.9608 16.2644 23.8974 16.3302 23.8544 16.4091L21.3454 20.9681C21.3137 21.0256 21.2936 21.0888 21.2863 21.1541C21.279 21.2194 21.2846 21.2855 21.3029 21.3486C21.3211 21.4117 21.3516 21.4705 21.3926 21.5218C21.4336 21.5732 21.4844 21.6159 21.5419 21.6476C21.5994 21.6793 21.6626 21.6994 21.7279 21.7067C21.7931 21.714 21.8592 21.7083 21.9223 21.6901C21.9854 21.6718 22.0443 21.6413 22.0956 21.6003C22.1469 21.5593 22.1897 21.5086 22.2214 21.4511L23.8154 18.5511L24.4064 64.9021C24.4079 65.0337 24.4613 65.1593 24.5549 65.2518C24.6485 65.3443 24.7748 65.3961 24.9064 65.3961H71.0434L68.4214 66.8081C68.3234 66.861 68.2459 66.9451 68.2011 67.047C68.1563 67.1489 68.1468 67.2629 68.1742 67.3708C68.2015 67.4788 68.2641 67.5745 68.3519 67.6428C68.4398 67.7112 68.548 67.7482 68.6594 67.7481C68.8424 67.7481 68.5504 67.8771 73.2324 65.3531C73.3115 65.3105 73.3776 65.2473 73.4238 65.1703C73.47 65.0932 73.4946 65.0051 73.495 64.9153C73.4955 64.8255 73.4716 64.7372 73.4261 64.6597C73.3806 64.5822 73.3151 64.5185 73.2364 64.4751Z" fill="#313553"/>
<path d="M32.9086 37.7031H28.3496V64.9141H32.9086V37.7031Z" fill="#55DEFF"/>
<path d="M46.3998 27.7031H41.8408V64.9121H46.3998V27.7031Z" fill="#55DEFF"/>
<path d="M59.891 40.6328H55.332V64.9148H59.891V40.6328Z" fill="#55DEFF"/>
<path d="M32.9096 65.4151H28.3506C28.218 65.4151 28.0908 65.3624 27.997 65.2687C27.9033 65.1749 27.8506 65.0477 27.8506 64.9151V37.7031C27.8506 37.5705 27.9033 37.4433 27.997 37.3496C28.0908 37.2558 28.218 37.2031 28.3506 37.2031H32.9096C33.0422 37.2031 33.1694 37.2558 33.2631 37.3496C33.3569 37.4433 33.4096 37.5705 33.4096 37.7031V64.9151C33.4096 65.0477 33.3569 65.1749 33.2631 65.2687C33.1694 65.3624 33.0422 65.4151 32.9096 65.4151ZM28.8506 64.4151H32.4096V38.2031H28.8506V64.4151Z" fill="#313553"/>
<path d="M46.3998 65.4121H41.8408C41.7082 65.4121 41.581 65.3594 41.4873 65.2657C41.3935 65.1719 41.3408 65.0447 41.3408 64.9121V27.7031C41.3408 27.5705 41.3935 27.4433 41.4873 27.3496C41.581 27.2558 41.7082 27.2031 41.8408 27.2031H46.3998C46.5324 27.2031 46.6596 27.2558 46.7534 27.3496C46.8471 27.4433 46.8998 27.5705 46.8998 27.7031V64.9121C46.8998 65.0447 46.8471 65.1719 46.7534 65.2657C46.6596 65.3594 46.5324 65.4121 46.3998 65.4121ZM42.3408 64.4121H45.8998V28.2031H42.3408V64.4121Z" fill="#313553"/>
<path d="M59.891 65.4158H55.332C55.1994 65.4158 55.0722 65.3631 54.9785 65.2694C54.8847 65.1756 54.832 65.0484 54.832 64.9158V40.6328C54.832 40.5002 54.8847 40.373 54.9785 40.2793C55.0722 40.1855 55.1994 40.1328 55.332 40.1328H59.891C60.0236 40.1328 60.1508 40.1855 60.2446 40.2793C60.3384 40.373 60.391 40.5002 60.391 40.6328V64.9158C60.391 65.0484 60.3384 65.1756 60.2446 65.2694C60.1508 65.3631 60.0236 65.4158 59.891 65.4158ZM55.832 64.4158H59.391V41.1328H55.832V64.4158Z" fill="#313553"/>
<path d="M37.4692 65.4147H32.9102C32.7775 65.4147 32.6504 65.362 32.5566 65.2682C32.4628 65.1745 32.4102 65.0473 32.4102 64.9147V50.1797C32.4102 50.0471 32.4628 49.9199 32.5566 49.8261C32.6504 49.7324 32.7775 49.6797 32.9102 49.6797H37.4692C37.6018 49.6797 37.7289 49.7324 37.8227 49.8261C37.9165 49.9199 37.9692 50.0471 37.9692 50.1797V64.9147C37.9692 65.0473 37.9165 65.1745 37.8227 65.2682C37.7289 65.362 37.6018 65.4147 37.4692 65.4147ZM33.4102 64.4147H36.9692V50.6797H33.4102V64.4147Z" fill="#313553"/>
<path d="M50.9604 65.4097H46.4004C46.2678 65.4097 46.1406 65.357 46.0468 65.2632C45.9531 65.1695 45.9004 65.0423 45.9004 64.9097V46.3047C45.9004 46.1721 45.9531 46.0449 46.0468 45.9511C46.1406 45.8574 46.2678 45.8047 46.4004 45.8047H50.9604C51.093 45.8047 51.2202 45.8574 51.3139 45.9511C51.4077 46.0449 51.4604 46.1721 51.4604 46.3047V64.9097C51.4604 65.0423 51.4077 65.1695 51.3139 65.2632C51.2202 65.357 51.093 65.4097 50.9604 65.4097ZM46.9004 64.4097H50.4604V46.8047H46.9004V64.4097Z" fill="#313553"/>
<path d="M64.4506 65.4094H59.8906C59.758 65.4094 59.6308 65.3567 59.5371 65.2629C59.4433 65.1692 59.3906 65.042 59.3906 64.9094V55.6094C59.3906 55.4768 59.4433 55.3496 59.5371 55.2558C59.6308 55.1621 59.758 55.1094 59.8906 55.1094H64.4496C64.5822 55.1094 64.7094 55.1621 64.8032 55.2558C64.8969 55.3496 64.9496 55.4768 64.9496 55.6094V64.9094C64.9496 65.0418 64.8971 65.1688 64.8035 65.2626C64.71 65.3563 64.5831 65.4091 64.4506 65.4094ZM60.3916 64.4094H63.9506V56.1094H60.3916V64.4094Z" fill="#313553"/>
<path d="M81.5582 72.875H12.7002C12.5676 72.875 12.4404 72.9277 12.3466 73.0215C12.2529 73.1152 12.2002 73.2424 12.2002 73.375V107.16C12.2002 107.293 12.2529 107.42 12.3466 107.514C12.4404 107.607 12.5676 107.66 12.7002 107.66H81.5582C81.6908 107.66 81.818 107.607 81.9117 107.514C82.0055 107.42 82.0582 107.293 82.0582 107.16V73.375C82.0582 73.2424 82.0055 73.1152 81.9117 73.0215C81.818 72.9277 81.6908 72.875 81.5582 72.875ZM36.1442 88.205H46.6712V92.069H36.1442V88.205ZM35.1442 92.069H24.6662V88.205H35.1442V92.069ZM47.6712 88.205H58.2002V92.069H47.6712V88.205ZM59.1982 88.205H69.7252V92.069H59.2002L59.1982 88.205ZM59.1982 87.205V83.342H69.7252V87.205H59.1982ZM58.1982 87.205H47.6712V83.342H58.2002L58.1982 87.205ZM47.6712 82.342V78.742H58.2002V82.342H47.6712ZM46.6712 82.342H36.1442V78.742H46.6712V82.342ZM46.6712 83.342V87.205H36.1442V83.342H46.6712ZM35.1442 87.205H24.6662V83.342H35.1442V87.205ZM23.6662 87.205H13.2002V83.342H23.6662V87.205ZM23.6662 88.205V92.069H13.2002V88.205H23.6662ZM13.2002 93.069H23.6662V96.933H13.2002V93.069ZM24.6632 93.069H35.1442V96.933H24.6662L24.6632 93.069ZM36.1412 93.069H46.6712V96.933H36.1442L36.1412 93.069ZM46.6682 97.933V101.796H36.1442V97.933H46.6682ZM47.6682 97.933H58.2002V101.796H47.6712L47.6682 97.933ZM47.6682 96.933V93.069H58.2002V96.933H47.6682ZM59.2002 93.069H69.7252V96.933H59.2002V93.069ZM70.7272 93.069H81.0582V96.933H70.7252L70.7272 93.069ZM70.7272 92.069V88.205H81.0582V92.069H70.7272ZM70.7272 87.205V83.342H81.0582V87.205H70.7272ZM70.7272 82.342V78.742H81.0582V82.342H70.7272ZM69.7272 82.342H59.2002V78.742H69.7252L69.7272 82.342ZM59.2002 77.739V73.875H69.7252V77.739H59.2002ZM58.2002 77.739H47.6712V73.875H58.2002V77.739ZM46.6732 77.739H36.1442V73.875H46.6712L46.6732 77.739ZM35.1462 77.739H24.6662V73.875H35.1442L35.1462 77.739ZM35.1462 78.739V82.339H24.6662V78.739H35.1462ZM23.6682 82.339H13.2002V78.739H23.6662L23.6682 82.339ZM13.2002 97.933H23.6662V101.796H13.2002V97.933ZM24.6632 97.933H35.1442V101.796H24.6662L24.6632 97.933ZM35.1412 102.796V106.66H24.6662V102.796H35.1412ZM36.1412 102.796H46.6712V106.66H36.1442L36.1412 102.796ZM47.6682 102.796H58.2002V106.66H47.6712L47.6682 102.796ZM59.1952 102.796H69.7252V106.66H59.2002L59.1952 102.796ZM59.1952 101.796V97.933H69.7252V101.796H59.1952ZM70.7222 97.933H81.0582V101.796H70.7252L70.7222 97.933ZM81.0582 77.739H70.7252V73.875H81.0582V77.739ZM13.2002 73.875H23.6662V77.739H13.2002V73.875ZM13.2002 102.796H23.6662V106.66H13.2002V102.796ZM70.7222 106.66V102.796H81.0582V106.66H70.7222Z" fill="#313553"/>
<path d="M142.038 113.625H102.579V153.083H142.038V113.625Z" fill="#313553"/>
<path d="M140.459 112.188H101V151.646H140.459V112.188Z" fill="white"/>
<path d="M140.463 152.146H101C100.867 152.146 100.74 152.093 100.646 151.999C100.553 151.905 100.5 151.778 100.5 151.646V112.188C100.5 112.055 100.553 111.928 100.646 111.834C100.74 111.74 100.867 111.688 101 111.688H140.463C140.596 111.688 140.723 111.74 140.817 111.834C140.91 111.928 140.963 112.055 140.963 112.188V151.646C140.963 151.778 140.91 151.905 140.817 151.999C140.723 152.093 140.596 152.146 140.463 152.146ZM101.504 151.146H139.963V112.688H101.5L101.504 151.146Z" fill="#313553"/>
<path d="M106.202 125.706C107.437 125.706 108.438 124.705 108.438 123.47C108.438 122.235 107.437 121.234 106.202 121.234C104.967 121.234 103.966 122.235 103.966 123.47C103.966 124.705 104.967 125.706 106.202 125.706Z" fill="#FFE8BB"/>
<path d="M106.202 136.386C107.437 136.386 108.438 135.385 108.438 134.15C108.438 132.915 107.437 131.914 106.202 131.914C104.967 131.914 103.966 132.915 103.966 134.15C103.966 135.385 104.967 136.386 106.202 136.386Z" fill="#FFE8BB"/>
<path d="M106.202 147.058C107.437 147.058 108.438 146.057 108.438 144.822C108.438 143.587 107.437 142.586 106.202 142.586C104.967 142.586 103.966 143.587 103.966 144.822C103.966 146.057 104.967 147.058 106.202 147.058Z" fill="#FFE8BB"/>
<path d="M106.202 126.206C105.661 126.207 105.132 126.046 104.681 125.746C104.231 125.445 103.881 125.018 103.673 124.518C103.466 124.018 103.412 123.468 103.517 122.937C103.623 122.406 103.884 121.918 104.266 121.536C104.649 121.153 105.136 120.892 105.667 120.787C106.198 120.681 106.748 120.736 107.248 120.943C107.748 121.15 108.176 121.501 108.476 121.951C108.777 122.401 108.937 122.93 108.937 123.471C108.936 124.197 108.648 124.892 108.135 125.404C107.622 125.917 106.927 126.206 106.202 126.206ZM106.202 121.735C105.858 121.735 105.523 121.837 105.237 122.027C104.951 122.218 104.729 122.489 104.597 122.806C104.466 123.124 104.431 123.473 104.498 123.809C104.565 124.146 104.73 124.456 104.973 124.699C105.216 124.941 105.525 125.107 105.862 125.174C106.199 125.241 106.548 125.207 106.865 125.075C107.182 124.944 107.453 124.721 107.644 124.436C107.835 124.15 107.937 123.815 107.937 123.471C107.936 123.011 107.753 122.57 107.428 122.245C107.103 121.919 106.662 121.736 106.202 121.735Z" fill="#313553"/>
<path d="M106.202 136.886C105.661 136.886 105.132 136.726 104.682 136.425C104.231 136.125 103.881 135.698 103.673 135.198C103.466 134.698 103.412 134.148 103.517 133.617C103.623 133.086 103.883 132.599 104.266 132.216C104.648 131.833 105.136 131.572 105.667 131.467C106.197 131.361 106.748 131.415 107.248 131.622C107.748 131.829 108.175 132.18 108.476 132.63C108.776 133.08 108.937 133.609 108.937 134.15C108.936 134.875 108.648 135.571 108.135 136.083C107.622 136.596 106.927 136.885 106.202 136.886ZM106.202 132.415C105.858 132.415 105.523 132.517 105.237 132.707C104.951 132.898 104.729 133.169 104.597 133.486C104.466 133.804 104.431 134.153 104.498 134.489C104.565 134.826 104.73 135.136 104.973 135.379C105.216 135.621 105.526 135.787 105.862 135.854C106.199 135.921 106.548 135.886 106.866 135.755C107.183 135.623 107.454 135.401 107.645 135.115C107.835 134.829 107.937 134.493 107.937 134.15C107.936 133.69 107.753 133.249 107.428 132.924C107.103 132.599 106.662 132.416 106.202 132.415Z" fill="#313553"/>
<path d="M106.202 147.564C105.661 147.564 105.132 147.403 104.682 147.103C104.233 146.802 103.882 146.375 103.675 145.875C103.468 145.376 103.414 144.826 103.519 144.295C103.625 143.765 103.885 143.277 104.268 142.895C104.65 142.512 105.138 142.252 105.668 142.146C106.199 142.041 106.749 142.095 107.248 142.302C107.748 142.509 108.175 142.859 108.476 143.309C108.776 143.759 108.937 144.288 108.937 144.829C108.936 145.554 108.648 146.249 108.135 146.762C107.622 147.275 106.927 147.563 106.202 147.564ZM106.202 143.094C105.859 143.094 105.523 143.196 105.238 143.386C104.953 143.577 104.73 143.848 104.599 144.165C104.468 144.482 104.433 144.831 104.5 145.167C104.567 145.504 104.732 145.813 104.975 146.056C105.218 146.298 105.527 146.463 105.863 146.53C106.2 146.597 106.549 146.563 106.866 146.432C107.183 146.3 107.454 146.078 107.644 145.793C107.835 145.507 107.937 145.172 107.937 144.829C107.935 144.369 107.752 143.929 107.427 143.605C107.101 143.281 106.661 143.098 106.202 143.098V143.094Z" fill="#313553"/>
<path d="M135.814 134.648H111.037C110.905 134.648 110.777 134.596 110.684 134.502C110.59 134.408 110.537 134.281 110.537 134.148C110.537 134.016 110.59 133.889 110.684 133.795C110.777 133.701 110.905 133.648 111.037 133.648H135.814C135.947 133.648 136.074 133.701 136.168 133.795C136.261 133.889 136.314 134.016 136.314 134.148C136.314 134.281 136.261 134.408 136.168 134.502C136.074 134.596 135.947 134.648 135.814 134.648Z" fill="#313553"/>
<path d="M135.814 123.969H111.037C110.905 123.969 110.777 123.916 110.684 123.822C110.59 123.729 110.537 123.601 110.537 123.469C110.537 123.336 110.59 123.209 110.684 123.115C110.777 123.021 110.905 122.969 111.037 122.969H135.814C135.947 122.969 136.074 123.021 136.168 123.115C136.261 123.209 136.314 123.336 136.314 123.469C136.314 123.601 136.261 123.729 136.168 123.822C136.074 123.916 135.947 123.969 135.814 123.969Z" fill="#313553"/>
<path d="M135.814 145.328H111.037C110.905 145.328 110.777 145.275 110.684 145.182C110.59 145.088 110.537 144.961 110.537 144.828C110.537 144.696 110.59 144.568 110.684 144.475C110.777 144.381 110.905 144.328 111.037 144.328H135.814C135.947 144.328 136.074 144.381 136.168 144.475C136.261 144.568 136.314 144.696 136.314 144.828C136.314 144.961 136.261 145.088 136.168 145.182C136.074 145.275 135.947 145.328 135.814 145.328Z" fill="#313553"/>
<path d="M141.52 19.1094H102.061V58.5674H141.52V19.1094Z" fill="#313553"/>
<path d="M139.941 17.6719H100.482V57.1299H139.941V17.6719Z" fill="white"/>
<path d="M139.941 57.6299H100.482C100.35 57.6299 100.223 57.5772 100.129 57.4834C100.035 57.3897 99.9824 57.2625 99.9824 57.1299V17.6719C99.9824 17.5393 100.035 17.4121 100.129 17.3183C100.223 17.2246 100.35 17.1719 100.482 17.1719H139.941C140.074 17.1719 140.201 17.2246 140.295 17.3183C140.389 17.4121 140.441 17.5393 140.441 17.6719V57.1299C140.441 57.2625 140.389 57.3897 140.295 57.4834C140.201 57.5772 140.074 57.6299 139.941 57.6299ZM100.982 56.6299H139.441V18.1719H100.982V56.6299Z" fill="#313553"/>
<path d="M109.074 29.9174H104.016C103.883 29.9174 103.756 29.8647 103.662 29.7709C103.568 29.6772 103.516 29.55 103.516 29.4174V24.3594C103.516 24.2268 103.568 24.0996 103.662 24.0058C103.756 23.9121 103.883 23.8594 104.016 23.8594H109.074C109.206 23.8594 109.333 23.9121 109.427 24.0058C109.521 24.0996 109.574 24.2268 109.574 24.3594V29.4174C109.574 29.55 109.521 29.6772 109.427 29.7709C109.333 29.8647 109.206 29.9174 109.074 29.9174ZM104.516 28.9174H108.574V24.8594H104.516V28.9174Z" fill="#313553"/>
<path d="M109.074 37.6283H104.016C103.883 37.6283 103.756 37.5756 103.662 37.4819C103.568 37.3881 103.516 37.2609 103.516 37.1283V32.0703C103.516 31.9377 103.568 31.8105 103.662 31.7168C103.756 31.623 103.883 31.5703 104.016 31.5703H109.074C109.206 31.5703 109.333 31.623 109.427 31.7168C109.521 31.8105 109.574 31.9377 109.574 32.0703V37.1283C109.574 37.2609 109.521 37.3881 109.427 37.4819C109.333 37.5756 109.206 37.6283 109.074 37.6283ZM104.516 36.6283H108.574V32.5703H104.516V36.6283Z" fill="#313553"/>
<path d="M109.074 45.3393H104.016C103.883 45.3393 103.756 45.2866 103.662 45.1928C103.568 45.099 103.516 44.9719 103.516 44.8393V39.7812C103.516 39.6486 103.568 39.5215 103.662 39.4277C103.756 39.3339 103.883 39.2812 104.016 39.2812H109.074C109.206 39.2812 109.333 39.3339 109.427 39.4277C109.521 39.5215 109.574 39.6486 109.574 39.7812V44.8393C109.574 44.9719 109.521 45.099 109.427 45.1928C109.333 45.2866 109.206 45.3393 109.074 45.3393ZM104.516 44.3393H108.574V40.2812H104.516V44.3393Z" fill="#313553"/>
<path d="M109.074 53.0502H104.016C103.883 53.0502 103.756 52.9975 103.662 52.9037C103.568 52.81 103.516 52.6828 103.516 52.5502V47.4922C103.516 47.3596 103.568 47.2324 103.662 47.1386C103.756 47.0449 103.883 46.9922 104.016 46.9922H109.074C109.206 46.9922 109.333 47.0449 109.427 47.1386C109.521 47.2324 109.574 47.3596 109.574 47.4922V52.5502C109.574 52.6828 109.521 52.81 109.427 52.9037C109.333 52.9975 109.206 53.0502 109.074 53.0502ZM104.516 52.0502H108.574V47.9922H104.516V52.0502Z" fill="#313553"/>
<path d="M135.945 27.3828H111.168C111.035 27.3828 110.908 27.3301 110.814 27.2364C110.721 27.1426 110.668 27.0154 110.668 26.8828C110.668 26.7502 110.721 26.623 110.814 26.5293C110.908 26.4355 111.035 26.3828 111.168 26.3828H135.945C136.078 26.3828 136.205 26.4355 136.299 26.5293C136.392 26.623 136.445 26.7502 136.445 26.8828C136.445 27.0154 136.392 27.1426 136.299 27.2364C136.205 27.3301 136.078 27.3828 135.945 27.3828Z" fill="#313553"/>
<path d="M135.945 35.0938H111.168C111.035 35.0938 110.908 35.0411 110.814 34.9473C110.721 34.8535 110.668 34.7264 110.668 34.5938C110.668 34.4611 110.721 34.334 110.814 34.2402C110.908 34.1464 111.035 34.0938 111.168 34.0938H135.945C136.078 34.0938 136.205 34.1464 136.299 34.2402C136.392 34.334 136.445 34.4611 136.445 34.5938C136.445 34.7264 136.392 34.8535 136.299 34.9473C136.205 35.0411 136.078 35.0938 135.945 35.0938Z" fill="#313553"/>
<path d="M135.945 42.8047H111.168C111.035 42.8047 110.908 42.752 110.814 42.6582C110.721 42.5645 110.668 42.4373 110.668 42.3047C110.668 42.1721 110.721 42.0449 110.814 41.9511C110.908 41.8574 111.035 41.8047 111.168 41.8047H135.945C136.078 41.8047 136.205 41.8574 136.299 41.9511C136.392 42.0449 136.445 42.1721 136.445 42.3047C136.445 42.4373 136.392 42.5645 136.299 42.6582C136.205 42.752 136.078 42.8047 135.945 42.8047Z" fill="#313553"/>
<path d="M135.945 50.5156H111.168C111.035 50.5156 110.908 50.4629 110.814 50.3692C110.721 50.2754 110.668 50.1482 110.668 50.0156C110.668 49.883 110.721 49.7558 110.814 49.6621C110.908 49.5683 111.035 49.5156 111.168 49.5156H135.945C136.078 49.5156 136.205 49.5683 136.299 49.6621C136.392 49.7558 136.445 49.883 136.445 50.0156C136.445 50.1482 136.392 50.2754 136.299 50.3692C136.205 50.4629 136.078 50.5156 135.945 50.5156Z" fill="#313553"/>
<path d="M106.192 28.6272L104.792 27.2362C104.746 27.1897 104.709 27.1346 104.684 27.0738C104.658 27.0131 104.646 26.948 104.646 26.8822C104.646 26.8165 104.658 26.7514 104.684 26.6906C104.709 26.6299 104.746 26.5747 104.792 26.5282C104.839 26.4817 104.894 26.4449 104.955 26.4197C105.015 26.3945 105.08 26.3816 105.146 26.3816C105.212 26.3816 105.277 26.3945 105.338 26.4197C105.398 26.4449 105.454 26.4817 105.5 26.5282L106.41 27.4352L107.71 24.8872C107.739 24.8268 107.779 24.7727 107.829 24.7282C107.879 24.6837 107.938 24.6497 108.001 24.6282C108.064 24.6066 108.131 24.598 108.198 24.6029C108.265 24.6077 108.33 24.6259 108.389 24.6564C108.449 24.6868 108.502 24.7289 108.545 24.7802C108.588 24.8314 108.62 24.8908 108.64 24.9548C108.659 25.0187 108.666 25.086 108.659 25.1525C108.652 25.2191 108.632 25.2836 108.6 25.3422L106.985 28.5002C106.949 28.5695 106.897 28.6294 106.834 28.675C106.771 28.7207 106.698 28.7509 106.621 28.7633C106.544 28.7756 106.465 28.7697 106.39 28.7461C106.316 28.7225 106.248 28.6818 106.192 28.6272Z" fill="#313553"/>
<path d="M106.192 36.5257L104.792 35.1357C104.744 35.0896 104.706 35.0345 104.68 34.9735C104.653 34.9126 104.639 34.847 104.639 34.7806C104.638 34.7142 104.651 34.6484 104.676 34.5869C104.701 34.5254 104.738 34.4695 104.785 34.4225C104.831 34.3755 104.887 34.3383 104.949 34.3131C105.01 34.2878 105.076 34.2751 105.142 34.2756C105.209 34.276 105.274 34.2897 105.335 34.3159C105.396 34.342 105.452 34.38 105.498 34.4277L106.408 35.3337L107.708 32.7857C107.736 32.7252 107.777 32.6711 107.827 32.6266C107.877 32.5821 107.935 32.5481 107.999 32.5266C108.062 32.5051 108.129 32.4965 108.196 32.5013C108.262 32.5062 108.328 32.5244 108.387 32.5548C108.447 32.5853 108.5 32.6274 108.543 32.6786C108.586 32.7299 108.618 32.7892 108.637 32.8532C108.657 32.9171 108.664 32.9844 108.657 33.051C108.65 33.1175 108.63 33.182 108.598 33.2407L106.983 36.3997C106.947 36.4685 106.895 36.5279 106.832 36.5733C106.769 36.6186 106.696 36.6486 106.619 36.6608C106.542 36.6731 106.463 36.6672 106.389 36.6437C106.315 36.6203 106.248 36.5799 106.192 36.5257Z" fill="#313553"/>
<path d="M106.082 44.2393L104.682 42.8483C104.635 42.8022 104.596 42.7471 104.57 42.6861C104.544 42.6252 104.53 42.5596 104.529 42.4932C104.529 42.4268 104.541 42.361 104.566 42.2995C104.591 42.238 104.628 42.1821 104.675 42.1351C104.722 42.0881 104.778 42.0509 104.839 42.0257C104.901 42.0005 104.967 41.9877 105.033 41.9882C105.099 41.9887 105.165 42.0024 105.226 42.0285C105.287 42.0546 105.342 42.0926 105.388 42.1403L106.298 43.0473L107.598 40.4993C107.628 40.4408 107.669 40.3887 107.719 40.3461C107.769 40.3035 107.827 40.2711 107.89 40.2509C107.952 40.2307 108.018 40.2229 108.084 40.2281C108.149 40.2334 108.213 40.2514 108.271 40.2813C108.33 40.3112 108.382 40.3523 108.425 40.4023C108.467 40.4523 108.5 40.5101 108.52 40.5726C108.54 40.6351 108.548 40.701 108.543 40.7665C108.537 40.832 108.519 40.8958 108.489 40.9543L106.873 44.1133C106.837 44.1821 106.786 44.2416 106.722 44.2869C106.659 44.3322 106.586 44.3622 106.509 44.3744C106.433 44.3867 106.354 44.3808 106.28 44.3574C106.206 44.3339 106.138 44.2935 106.082 44.2393Z" fill="#313553"/>
<path d="M142.037 67.1016H102.578V106.56H142.037V67.1016Z" fill="#313553"/>
<path d="M140.459 65.1875H101V104.646H140.459V65.1875Z" fill="white"/>
<path d="M140.459 105.146H101C100.867 105.146 100.74 105.093 100.646 104.999C100.553 104.905 100.5 104.778 100.5 104.646V65.1875C100.5 65.0549 100.553 64.9277 100.646 64.8339C100.74 64.7402 100.867 64.6875 101 64.6875H140.459C140.592 64.6875 140.719 64.7402 140.813 64.8339C140.906 64.9277 140.959 65.0549 140.959 65.1875V104.646C140.959 104.778 140.906 104.905 140.813 104.999C140.719 105.093 140.592 105.146 140.459 105.146ZM101.5 104.146H139.959V65.6875H101.5V104.146Z" fill="#313553"/>
<path d="M133.118 75.4297H108.341C108.208 75.4297 108.081 75.377 107.987 75.2832C107.893 75.1895 107.841 75.0623 107.841 74.9297C107.841 74.7971 107.893 74.6699 107.987 74.5761C108.081 74.4824 108.208 74.4297 108.341 74.4297H133.118C133.25 74.4297 133.378 74.4824 133.471 74.5761C133.565 74.6699 133.618 74.7971 133.618 74.9297C133.618 75.0623 133.565 75.1895 133.471 75.2832C133.378 75.377 133.25 75.4297 133.118 75.4297Z" fill="#313553"/>
<path d="M133.118 83.1406H108.341C108.208 83.1406 108.081 83.0879 107.987 82.9942C107.893 82.9004 107.841 82.7732 107.841 82.6406C107.841 82.508 107.893 82.3808 107.987 82.2871C108.081 82.1933 108.208 82.1406 108.341 82.1406H133.118C133.25 82.1406 133.378 82.1933 133.471 82.2871C133.565 82.3808 133.618 82.508 133.618 82.6406C133.618 82.7732 133.565 82.9004 133.471 82.9942C133.378 83.0879 133.25 83.1406 133.118 83.1406Z" fill="#313553"/>
<path d="M133.118 90.8516H108.341C108.208 90.8516 108.081 90.7989 107.987 90.7051C107.893 90.6113 107.841 90.4842 107.841 90.3516C107.841 90.219 107.893 90.0918 107.987 89.998C108.081 89.9042 108.208 89.8516 108.341 89.8516H133.118C133.25 89.8516 133.378 89.9042 133.471 89.998C133.565 90.0918 133.618 90.219 133.618 90.3516C133.618 90.4842 133.565 90.6113 133.471 90.7051C133.378 90.7989 133.25 90.8516 133.118 90.8516Z" fill="#313553"/>
<path d="M133.118 98.5703H108.341C108.208 98.5703 108.081 98.5176 107.987 98.4239C107.893 98.3301 107.841 98.2029 107.841 98.0703C107.841 97.9377 107.893 97.8105 107.987 97.7168C108.081 97.623 108.208 97.5703 108.341 97.5703H133.118C133.25 97.5703 133.378 97.623 133.471 97.7168C133.565 97.8105 133.618 97.9377 133.618 98.0703C133.618 98.2029 133.565 98.3301 133.471 98.4239C133.378 98.5176 133.25 98.5703 133.118 98.5703Z" fill="#313553"/>
<path d="M169.071 22.728C175.347 22.728 180.435 17.6402 180.435 11.364C180.435 5.08784 175.347 0 169.071 0C162.795 0 157.707 5.08784 157.707 11.364C157.707 17.6402 162.795 22.728 169.071 22.728Z" fill="white"/>
</svg>
