<svg width="36" height="39" viewBox="0 0 36 39" fill="none" xmlns="http://www.w3.org/2000/svg">
<path d="M26.3768 2.03125L26.7331 3.75377L5.49841 8.12312L11.2557 36.0233L9.52891 36.3775L9.17259 34.6533L3.41699 6.7553L24.6501 2.38595L26.3768 2.03125Z" fill="#F4E7FF"/>
<path d="M24.6497 2.38823L3.41662 6.75757L9.17222 34.6556L7.44548 35.0119L1.33301 5.38756L24.295 0.664062L24.6497 2.38823Z" fill="#313553"/>
<path d="M11.61 37.7441L11.2553 36.0222L5.49805 8.12194L26.7328 3.75259L28.4578 3.39844L34.6664 32.7319" stroke="#313553" stroke-width="0.687" stroke-linecap="round" stroke-linejoin="round"/>
<path d="M11.2557 36.0233L9.52891 36.3775L9.17259 34.6533L3.41699 6.7553L24.6501 2.38595L26.3768 2.03125L26.7331 3.75377V3.75541" stroke="#313553" stroke-width="0.687" stroke-linecap="round" stroke-linejoin="round"/>
<path d="M9.17222 34.6556L7.44548 35.0119L1.33301 5.38756L24.295 0.664062L24.6497 2.38823" stroke="#313553" stroke-width="0.687" stroke-linecap="round" stroke-linejoin="round"/>
<path d="M9.96484 11.314L25.6196 8.09375" stroke="#313553" stroke-width="0.687" stroke-linecap="round" stroke-linejoin="round"/>
<path d="M11.5381 14.5897L27.1934 11.3672" stroke="#313553" stroke-width="0.687" stroke-linecap="round" stroke-linejoin="round"/>
<path d="M10.168 16.6626L27.5495 13.0859" stroke="#313553" stroke-width="0.687" stroke-linecap="round" stroke-linejoin="round"/>
<path d="M10.5225 18.3886L27.904 14.8125" stroke="#313553" stroke-width="0.687" stroke-linecap="round" stroke-linejoin="round"/>
<path d="M10.8799 20.113L23.0818 17.6016" stroke="#313553" stroke-width="0.687" stroke-linecap="round" stroke-linejoin="round"/>
<path d="M12.9609 21.4781L28.6157 18.2578" stroke="#313553" stroke-width="0.687" stroke-linecap="round" stroke-linejoin="round"/>
<path d="M11.5908 23.5588L28.9724 19.9844" stroke="#313553" stroke-width="0.687" stroke-linecap="round" stroke-linejoin="round"/>
<path d="M11.9463 25.2792L29.3278 21.7031" stroke="#313553" stroke-width="0.687" stroke-linecap="round" stroke-linejoin="round"/>
<path d="M14.0273 26.6516L29.6844 23.4297" stroke="#313553" stroke-width="0.687" stroke-linecap="round" stroke-linejoin="round"/>
<path d="M12.6572 28.7323L30.0388 25.1562" stroke="#313553" stroke-width="0.687" stroke-linecap="round" stroke-linejoin="round"/>
<path d="M13.0137 30.4589L30.3952 26.8828" stroke="#313553" stroke-width="0.687" stroke-linecap="round" stroke-linejoin="round"/>
<path d="M17.8047 33.7962L19.577 33.4328L21.6826 32.9991L26.0568 32.0984L26.8875 31.9268L28.282 31.6406" stroke="#500CBF" stroke-width="0.687" stroke-linecap="round" stroke-linejoin="round"/>
<path d="M22.9586 31.1354C22.9037 31.3355 22.5638 32.5942 23.0321 32.6073C23.5378 32.6221 24.6908 29.7188 24.6908 29.7188C24.6908 29.7188 24.1264 32.0761 24.8094 32.1249C25.4924 32.1737 25.393 30.4479 25.9854 30.2878C26.4021 30.1743 26.0568 31.4067 26.0568 32.0969C26.0568 32.393 26.121 32.5903 26.3346 32.5355C26.6004 32.4697 26.7607 32.2192 26.8875 31.9248C27.095 31.4314 27.2136 30.8168 27.5837 30.7247" stroke="#500CBF" stroke-width="0.687" stroke-linecap="round" stroke-linejoin="round"/>
<path d="M20.7627 31.9816C21.0043 32.5676 21.3666 33.0232 21.6719 32.952C22.3664 32.7842 22.8836 31.3468 22.9572 31.1335C22.9586 31.1272 22.9604 31.1209 22.9627 31.1149V31.1094" stroke="#500CBF" stroke-width="0.687" stroke-linecap="round" stroke-linejoin="round"/>
<path d="M20.7629 31.9814C21.3229 30.9261 21.6326 29.6882 20.9628 29.8598C20.3127 30.0276 20.4165 31.1372 20.7629 31.9814Z" stroke="#500CBF" stroke-width="0.687" stroke-linecap="round" stroke-linejoin="round"/>
<path d="M19.5635 33.3692C19.939 33.2678 20.403 32.6647 20.7637 31.9844" stroke="#500CBF" stroke-width="0.687" stroke-linecap="round" stroke-linejoin="round"/>
</svg>
